HIERARCHY
ROOT SpineBase
{
  OFFSET 0.000000 0.000000 0.000000
  CHANNELS 6 Xposition Yposition Zposition Zrotation Xrotation Yrotation
  JOINT SpineMid
  {
    OFFSET 0.000000 31.637650 0.000000
    CHANNELS 3 Zrotation Xrotation Yrotation
    JOINT SpineShoulder
    {
      OFFSET -0.119073 23.604398 -0.743390
      CHANNELS 3 Zrotation Xrotation Yrotation
      JOINT Neck
      {
        OFFSET -0.095708 7.847855 -0.573919
        CHANNELS 3 Zrotation Xrotation Yrotation
        JOINT Head
        {
          OFFSET 7.891762 8.345848 2.385731
          CHANNELS 3 Zrotation Xrotation Yrotation
          End Site
          {
            OFFSET 0 0 0
          }
        }
      }
      JOINT ShoulderLeft
      {
        OFFSET -8.271467 -3.024793 -12.164621
        CHANNELS 3 Zrotation Xrotation Yrotation
        JOINT ElbowLeft
        {
          OFFSET -2.487463 -22.290348 -8.437493
          CHANNELS 3 Zrotation Xrotation Yrotation
          JOINT WristLeft
          {
            OFFSET 4.097442 -19.506613 -3.998478
            CHANNELS 3 Zrotation Xrotation Yrotation
            JOINT HandLeft
            {
              OFFSET 1.279692 -8.063923 -1.207584
              CHANNELS 3 Zrotation Xrotation Yrotation
              JOINT HandTipLeft
              {
                OFFSET 0.876418 -6.958386 0.341825
                CHANNELS 3 Zrotation Xrotation Yrotation
                End Site
                {
                  OFFSET 0 0 0
                }
              }
              JOINT ThumbLeft
              {
                OFFSET -1.827088 -1.368425 -3.113408
                CHANNELS 3 Zrotation Xrotation Yrotation
                End Site
                {
                  OFFSET 0 0 0
                }
              }
            }
          }
        }
      }
      JOINT ShoulderRight
      {
        OFFSET 28.396950 -10.419421 -8.417915
        CHANNELS 3 Zrotation Xrotation Yrotation
        JOINT ElbowRight
        {
          OFFSET -4.430992 -13.802729 21.370713
          CHANNELS 3 Zrotation Xrotation Yrotation
          JOINT WristRight
          {
            OFFSET -3.376044 -24.888944 8.969447
            CHANNELS 3 Zrotation Xrotation Yrotation
            JOINT HandRight
            {
              OFFSET -5.282343 -7.049002 -7.534699
              CHANNELS 3 Zrotation Xrotation Yrotation
              JOINT HandTipRight
              {
                OFFSET 0.140598 -2.404143 -1.507154
                CHANNELS 3 Zrotation Xrotation Yrotation
                End Site
                {
                  OFFSET 0 0 0
                }
              }
              JOINT ThumbRight
              {
                OFFSET 0.707638 -1.395510 -2.406694
                CHANNELS 3 Zrotation Xrotation Yrotation
                End Site
                {
                  OFFSET 0 0 0
                }
              }
            }
          }
        }
      }
    }
  }
  JOINT HipLeft
  {
    OFFSET -7.469831 2.117979 -6.267468
    CHANNELS 3 Zrotation Xrotation Yrotation
    JOINT KneeLeft
    {
      OFFSET -2.877996 -29.947871 -2.809273
      CHANNELS 3 Zrotation Xrotation Yrotation
      JOINT AnkleLeft
      {
        OFFSET -10.064494 -33.464630 1.346543
        CHANNELS 3 Zrotation Xrotation Yrotation
        JOINT FootLeft
        {
          OFFSET 0.947027 -5.633946 -5.040409
          CHANNELS 3 Zrotation Xrotation Yrotation
          End Site
          {
            OFFSET 0 0 0
          }
        }
      }
    }
  }
  JOINT HipRight
  {
    OFFSET 6.387966 0.726287 -0.623222
    CHANNELS 3 Zrotation Xrotation Yrotation
    JOINT KneeRight
    {
      OFFSET -6.097501 -29.024551 -1.454441
      CHANNELS 3 Zrotation Xrotation Yrotation
      JOINT AnkleRight
      {
        OFFSET -6.535719 -36.384626 7.778001
        CHANNELS 3 Zrotation Xrotation Yrotation
        JOINT FootRight
        {
          OFFSET 0.349934 -4.702813 -8.963080
          CHANNELS 3 Zrotation Xrotation Yrotation
          End Site
          {
            OFFSET 0 0 0
          }
        }
      }
    }
  }
}
MOTION
Frames: 6
Frame Time: 0.033333
56.766277 75.464059 318.792529 -0.000000 0.000000 -22.160946 -0.000000 0.000000 22.160946 -0.000000 0.000000 0.000000 -0.000000 0.000000 0.000000 0.000000 0.000000 0.000000 -0.000000 0.000000 0.000000 -0.000000 0.000000 0.000000 -0.000000 0.000000 0.000000 -0.000000 0.000000 0.000000 0.000000 0.000000 0.000000 0.000000 0.000000 0.000000 -0.000000 0.000000 0.000000 -0.000000 0.000000 0.000000 -0.000000 0.000000 0.000000 -0.000000 0.000000 0.000000 0.000000 0.000000 0.000000 0.000000 0.000000 0.000000 -0.000000 0.000000 22.160946 -0.000000 0.000000 0.000000 -0.000000 0.000000 0.000000 0.000000 0.000000 0.000000 -0.000000 0.000000 22.160946 -0.000000 0.000000 0.000000 -0.000000 0.000000 0.000000 0.000000 0.000000 0.000000
56.992028 75.444701 319.351094 -0.158320 0.302259 -23.246253 0.264766 -0.215233 23.247168 -0.000000 0.000000 0.000000 0.723888 -0.535675 0.305215 0.000000 0.000000 0.000000 -0.000000 0.000000 0.000000 -0.000000 0.000000 0.000000 -0.548141 -5.218436 -0.777483 4.373068 7.886108 0.806325 0.000000 0.000000 0.000000 0.000000 0.000000 0.000000 -0.000000 0.000000 0.000000 0.678897 -0.861591 0.365941 -3.907501 4.798288 0.314166 6.319902 -7.406531 -2.276410 0.000000 0.000000 0.000000 0.000000 0.000000 0.000000 0.264766 -0.215233 23.247168 -0.000000 0.000000 0.000000 0.142234 13.690881 1.957205 0.000000 0.000000 0.000000 -2.444269 3.175420 22.498466 1.856555 -7.203886 1.598405 -0.560899 3.052863 -0.656626 0.000000 0.000000 0.000000
57.217690 75.426845 319.881201 -0.308740 0.589395 -24.248158 0.523571 -0.410587 24.251622 -0.000000 0.000000 0.000000 1.310677 -0.989493 0.580013 0.000000 0.000000 0.000000 -0.000000 0.000000 0.000000 0.327482 -0.934743 -0.261087 -1.410729 -8.995562 -1.241609 8.398966 15.326218 0.732893 0.000000 0.000000 0.000000 0.000000 0.000000 0.000000 -0.000000 0.000000 0.000000 1.060658 -1.305139 0.569745 -6.663758 7.986902 0.871505 10.580629 -13.596516 -3.399579 0.000000 0.000000 0.000000 0.000000 0.000000 0.000000 0.523571 -0.410587 24.251622 -0.503473 1.049867 -0.331086 0.445277 20.692807 3.454861 0.000000 0.000000 0.000000 -4.439273 5.739024 22.984298 3.435200 -13.070446 3.073238 -1.380416 6.286936 -0.206596 0.000000 0.000000 0.000000
57.443264 75.410490 320.382850 -0.451225 0.861331 -25.172675 0.030283 -0.079628 25.165205 0.457831 -0.776301 0.013601 1.768584 -1.368962 0.824909 0.000000 0.000000 0.000000 -0.000000 0.000000 0.000000 0.535906 -1.351646 -0.388017 -2.172110 -12.835796 -1.810886 12.061982 22.202772 -0.011527 0.000000 0.000000 0.000000 0.000000 0.000000 0.000000 -0.000000 0.000000 0.000000 1.145015 -1.338974 0.605930 -8.385252 9.694647 1.492253 13.100768 -18.599018 -3.949512 0.000000 0.000000 0.000000 0.000000 0.000000 0.000000 0.774773 -0.587562 25.180039 -0.774490 1.425171 -0.449483 0.614727 24.667819 4.159561 0.000000 0.000000 0.000000 -5.984465 7.728035 23.558225 4.661708 -17.633273 4.327186 -1.703331 8.146060 -0.328729 0.000000 0.000000 0.000000
57.668749 75.395636 320.856042 -0.585743 1.117994 -26.025228 0.028908 -0.081677 26.016872 0.019205 -0.102845 -0.017630 2.683042 -2.606890 1.110211 0.000000 0.000000 0.000000 0.576912 -0.928757 0.035516 0.774959 -1.743402 -0.514169 -2.970991 -16.315846 -2.351467 15.304852 28.465443 -1.206526 0.000000 0.000000 0.000000 0.000000 0.000000 0.000000 0.576912 -0.928757 0.035516 0.932691 -0.965126 0.473984 -9.115617 9.994700 2.085834 14.057903 -22.460026 -4.295208 0.000000 0.000000 0.000000 0.000000 0.000000 0.000000 1.016962 -0.747536 26.037577 -1.058156 1.698257 -0.536510 0.963505 26.183750 4.372439 0.000000 0.000000 0.000000 -7.085759 9.193369 24.174054 5.460487 -20.949758 5.271432 -1.799199 9.131176 -0.493216 0.000000 0.000000 0.000000
57.894145 75.382283 321.300776 -0.712258 1.359315 -26.810677 0.021418 -0.072313 26.802141 0.016501 -0.092350 -0.021358 3.034375 -3.116933 1.320764 0.000000 0.000000 0.000000 0.431258 -2.000986 0.233373 1.320275 -1.311433 -0.853788 -3.813102 -19.502719 -2.870085 18.046369 34.125986 -2.627405 0.000000 0.000000 0.000000 0.000000 0.000000 0.000000 0.710048 -1.192300 0.044737 -0.000000 0.000000 0.000000 -8.431171 8.670247 2.779620 13.535293 -25.153017 -4.661074 0.000000 0.000000 0.000000 0.000000 0.000000 0.000000 1.248931 -0.891769 26.828846 -1.354019 1.868099 -0.592567 1.530113 25.704143 4.135367 0.000000 0.000000 0.000000 -7.750804 10.186970 24.799779 5.766170 -23.077183 5.834489 -1.674024 9.230799 -0.712586 0.000000 0.000000 0.000000
